# xmcd
#
# Track frame offsets: 
#        150
#        20001
#        41988
#        62215
#        85822
#        109273
#        126648
#        157474
#        184124
#        204962
#        226576
#        245664
#
# Disc length: 3578 seconds
#
# Revision: 0
# Processed by: cddbd v1.5.2PL0 Copyright (c) Steve Scherf et al.
# Submitted via: ExactAudioCopy v1.0b1
#
DISCID=af0df80c
DTITLE=Vieux Farka Touré - The Secret
DYEAR=2011
DGENRE=Guitar
TTITLE0=Sokosondou
TTITLE1=Aigna (feat. Derek Trucks)
TTITLE2=All The Same (feat. Dave Matthews)
TTITLE3=Ali
TTITLE4=Lakkal (Watch Out) (feat. Eric Krasno)
TTITLE5=Wonda Guay
TTITLE6=The Secret (feat. Ali Farka Toure)
TTITLE7=Borei
TTITLE8=Sankare Diadje
TTITLE9=Gido (feat. John Scofield)
TTITLE10=Amana Quai
TTITLE11=Touri
EXTD=
EXTT0=
EXTT1=
EXTT2=
EXTT3=
EXTT4=
EXTT5=
EXTT6=
EXTT7=
EXTT8=
EXTT9=
EXTT10=
EXTT11=
PLAYORDER=
